<mxfile host="app.diagrams.net" modified="2023-03-30T16:51:37.355Z" agent="Mozilla/5.0 (Windows NT 10.0; Win64; x64) AppleWebKit/537.36 (KHTML, like Gecko) Chrome/110.0.0.0 Safari/537.36 OPR/96.0.0.0" etag="qf4ZDd2fzIAMCoWZfbJd" version="21.1.2" type="device">
  <diagram name="Page-1" id="YAGSdDMeQtYRYHB3uxUu">
    <mxGraphModel dx="1639" dy="892" grid="1" gridSize="10" guides="1" tooltips="1" connect="1" arrows="1" fold="1" page="1" pageScale="1" pageWidth="827" pageHeight="1169" math="0" shadow="0">
      <root>
        <mxCell id="0" />
        <mxCell id="1" parent="0" />
        <mxCell id="rch-fzdMA8eyYcIIr424-3" style="edgeStyle=orthogonalEdgeStyle;rounded=0;orthogonalLoop=1;jettySize=auto;html=1;exitX=0.75;exitY=0;exitDx=0;exitDy=0;entryX=1;entryY=0.5;entryDx=0;entryDy=0;" edge="1" parent="1" source="QmszCuCcI1vVuoz1PfN--3" target="rch-fzdMA8eyYcIIr424-2">
          <mxGeometry relative="1" as="geometry">
            <mxPoint x="510" y="370" as="targetPoint" />
            <Array as="points">
              <mxPoint x="470" y="371" />
            </Array>
          </mxGeometry>
        </mxCell>
        <mxCell id="QmszCuCcI1vVuoz1PfN--3" value="&lt;div style=&quot;font-size: 16px;&quot;&gt;&lt;b&gt;RASPI PICO&lt;/b&gt;&lt;/div&gt;&lt;div&gt;&lt;br&gt;&lt;/div&gt;" style="rounded=0;whiteSpace=wrap;html=1;rotation=-90;fillColor=#d5e8d4;strokeColor=#82b366;" parent="1" vertex="1">
          <mxGeometry x="497.19" y="437.82" width="426.62" height="80" as="geometry" />
        </mxCell>
        <mxCell id="QmszCuCcI1vVuoz1PfN--13" style="edgeStyle=orthogonalEdgeStyle;rounded=0;orthogonalLoop=1;jettySize=auto;html=1;exitX=0;exitY=0.5;exitDx=0;exitDy=0;entryX=1.004;entryY=0.367;entryDx=0;entryDy=0;entryPerimeter=0;" parent="1" source="QmszCuCcI1vVuoz1PfN--4" target="QmszCuCcI1vVuoz1PfN--7" edge="1">
          <mxGeometry relative="1" as="geometry" />
        </mxCell>
        <mxCell id="QmszCuCcI1vVuoz1PfN--18" style="edgeStyle=orthogonalEdgeStyle;rounded=0;orthogonalLoop=1;jettySize=auto;html=1;exitX=0.5;exitY=1;exitDx=0;exitDy=0;entryX=0.5;entryY=0;entryDx=0;entryDy=0;" parent="1" source="QmszCuCcI1vVuoz1PfN--4" target="QmszCuCcI1vVuoz1PfN--16" edge="1">
          <mxGeometry relative="1" as="geometry" />
        </mxCell>
        <mxCell id="QmszCuCcI1vVuoz1PfN--4" value="&lt;div&gt;&lt;br&gt;&lt;/div&gt;&lt;div&gt;Battery&amp;nbsp;&lt;/div&gt;&lt;div&gt;CONN&lt;/div&gt;" style="rounded=0;whiteSpace=wrap;html=1;fillColor=#dae8fc;strokeColor=#6c8ebf;rotation=0;" parent="1" vertex="1">
          <mxGeometry x="870" y="90" width="120" height="45" as="geometry" />
        </mxCell>
        <mxCell id="rch-fzdMA8eyYcIIr424-1" style="edgeStyle=orthogonalEdgeStyle;rounded=0;orthogonalLoop=1;jettySize=auto;html=1;exitX=0.5;exitY=1;exitDx=0;exitDy=0;entryX=1;entryY=0.5;entryDx=0;entryDy=0;" edge="1" parent="1" source="QmszCuCcI1vVuoz1PfN--7" target="QmszCuCcI1vVuoz1PfN--3">
          <mxGeometry relative="1" as="geometry" />
        </mxCell>
        <mxCell id="QmszCuCcI1vVuoz1PfN--7" value="&lt;div&gt;DC-DC CONV&lt;/div&gt;&lt;div&gt;&lt;br&gt;&lt;/div&gt;" style="rounded=0;whiteSpace=wrap;html=1;fillColor=#f8cecc;strokeColor=#b85450;" parent="1" vertex="1">
          <mxGeometry x="650.5" y="90" width="120" height="60" as="geometry" />
        </mxCell>
        <mxCell id="QmszCuCcI1vVuoz1PfN--19" style="edgeStyle=orthogonalEdgeStyle;rounded=0;orthogonalLoop=1;jettySize=auto;html=1;exitX=0.5;exitY=1;exitDx=0;exitDy=0;entryX=0.5;entryY=0;entryDx=0;entryDy=0;" parent="1" source="QmszCuCcI1vVuoz1PfN--11" target="QmszCuCcI1vVuoz1PfN--12" edge="1">
          <mxGeometry relative="1" as="geometry" />
        </mxCell>
        <mxCell id="QmszCuCcI1vVuoz1PfN--93" style="edgeStyle=orthogonalEdgeStyle;rounded=0;orthogonalLoop=1;jettySize=auto;html=1;" parent="1" source="QmszCuCcI1vVuoz1PfN--11" edge="1">
          <mxGeometry relative="1" as="geometry">
            <mxPoint x="750" y="315" as="targetPoint" />
          </mxGeometry>
        </mxCell>
        <mxCell id="QmszCuCcI1vVuoz1PfN--11" value="&lt;div&gt;CONTROL &lt;br&gt;&lt;/div&gt;&lt;div&gt;RELAY&lt;/div&gt;" style="rounded=0;whiteSpace=wrap;html=1;fillColor=#d5e8d4;strokeColor=#82b366;" parent="1" vertex="1">
          <mxGeometry x="870" y="295" width="120" height="40" as="geometry" />
        </mxCell>
        <mxCell id="QmszCuCcI1vVuoz1PfN--22" style="edgeStyle=orthogonalEdgeStyle;rounded=0;orthogonalLoop=1;jettySize=auto;html=1;exitX=1;exitY=0.5;exitDx=0;exitDy=0;" parent="1" source="QmszCuCcI1vVuoz1PfN--12" target="QmszCuCcI1vVuoz1PfN--21" edge="1">
          <mxGeometry relative="1" as="geometry" />
        </mxCell>
        <mxCell id="QmszCuCcI1vVuoz1PfN--27" value="" style="edgeStyle=orthogonalEdgeStyle;rounded=0;orthogonalLoop=1;jettySize=auto;html=1;" parent="1" source="QmszCuCcI1vVuoz1PfN--12" target="QmszCuCcI1vVuoz1PfN--23" edge="1">
          <mxGeometry relative="1" as="geometry" />
        </mxCell>
        <mxCell id="QmszCuCcI1vVuoz1PfN--57" style="edgeStyle=orthogonalEdgeStyle;rounded=0;orthogonalLoop=1;jettySize=auto;html=1;entryX=0.636;entryY=0.994;entryDx=0;entryDy=0;entryPerimeter=0;" parent="1" source="QmszCuCcI1vVuoz1PfN--12" target="QmszCuCcI1vVuoz1PfN--3" edge="1">
          <mxGeometry relative="1" as="geometry" />
        </mxCell>
        <mxCell id="QmszCuCcI1vVuoz1PfN--12" value="&lt;div&gt;MAIN &lt;br&gt;&lt;/div&gt;&lt;div&gt;RELAY: &lt;br&gt;&lt;/div&gt;&lt;div&gt;1D&lt;br&gt;&lt;/div&gt;" style="rounded=0;whiteSpace=wrap;html=1;fillColor=#e1d5e7;strokeColor=#9673a6;" parent="1" vertex="1">
          <mxGeometry x="870" y="385" width="120" height="70" as="geometry" />
        </mxCell>
        <mxCell id="QmszCuCcI1vVuoz1PfN--17" style="edgeStyle=orthogonalEdgeStyle;rounded=0;orthogonalLoop=1;jettySize=auto;html=1;exitX=0.5;exitY=1;exitDx=0;exitDy=0;entryX=0.5;entryY=0;entryDx=0;entryDy=0;" parent="1" source="QmszCuCcI1vVuoz1PfN--16" target="QmszCuCcI1vVuoz1PfN--11" edge="1">
          <mxGeometry relative="1" as="geometry" />
        </mxCell>
        <mxCell id="QmszCuCcI1vVuoz1PfN--16" value="BAT CONN" style="rounded=0;whiteSpace=wrap;html=1;fillColor=#fff2cc;strokeColor=#d6b656;" parent="1" vertex="1">
          <mxGeometry x="910" y="185" width="40" height="60" as="geometry" />
        </mxCell>
        <mxCell id="QmszCuCcI1vVuoz1PfN--20" value="&lt;div style=&quot;font-size: 14px;&quot;&gt;&lt;font style=&quot;font-size: 11px;&quot;&gt;PWR&lt;/font&gt;&lt;/div&gt;" style="text;html=1;strokeColor=none;fillColor=none;align=center;verticalAlign=middle;whiteSpace=wrap;rounded=0;rotation=90;" parent="1" vertex="1">
          <mxGeometry x="920" y="345" width="40" height="20" as="geometry" />
        </mxCell>
        <mxCell id="lCQCsZ8ukJ3mlJXEvnOO-9" style="edgeStyle=orthogonalEdgeStyle;rounded=0;orthogonalLoop=1;jettySize=auto;html=1;exitX=0;exitY=0.75;exitDx=0;exitDy=0;entryX=1;entryY=0.712;entryDx=0;entryDy=0;entryPerimeter=0;" parent="1" source="QmszCuCcI1vVuoz1PfN--21" target="QmszCuCcI1vVuoz1PfN--12" edge="1">
          <mxGeometry relative="1" as="geometry">
            <Array as="points">
              <mxPoint x="1050" y="435" />
            </Array>
          </mxGeometry>
        </mxCell>
        <mxCell id="QmszCuCcI1vVuoz1PfN--21" value="&lt;div&gt;MECH&lt;/div&gt;&lt;div&gt;SWITCH:&lt;/div&gt;&lt;div&gt;&amp;nbsp;1D&lt;br&gt;&lt;/div&gt;" style="rounded=0;whiteSpace=wrap;html=1;fillColor=#fff2cc;strokeColor=#d6b656;" parent="1" vertex="1">
          <mxGeometry x="1110" y="390" width="80" height="60" as="geometry" />
        </mxCell>
        <mxCell id="QmszCuCcI1vVuoz1PfN--29" value="" style="edgeStyle=orthogonalEdgeStyle;rounded=0;orthogonalLoop=1;jettySize=auto;html=1;" parent="1" source="QmszCuCcI1vVuoz1PfN--23" target="QmszCuCcI1vVuoz1PfN--26" edge="1">
          <mxGeometry relative="1" as="geometry" />
        </mxCell>
        <mxCell id="QmszCuCcI1vVuoz1PfN--48" style="edgeStyle=orthogonalEdgeStyle;rounded=0;orthogonalLoop=1;jettySize=auto;html=1;entryX=0;entryY=0.5;entryDx=0;entryDy=0;" parent="1" source="QmszCuCcI1vVuoz1PfN--23" target="QmszCuCcI1vVuoz1PfN--43" edge="1">
          <mxGeometry relative="1" as="geometry">
            <Array as="points">
              <mxPoint x="1030" y="525" />
              <mxPoint x="1030" y="525" />
            </Array>
          </mxGeometry>
        </mxCell>
        <mxCell id="QmszCuCcI1vVuoz1PfN--59" style="edgeStyle=orthogonalEdgeStyle;rounded=0;orthogonalLoop=1;jettySize=auto;html=1;entryX=0.399;entryY=0.99;entryDx=0;entryDy=0;entryPerimeter=0;" parent="1" source="QmszCuCcI1vVuoz1PfN--23" target="QmszCuCcI1vVuoz1PfN--3" edge="1">
          <mxGeometry relative="1" as="geometry" />
        </mxCell>
        <mxCell id="QmszCuCcI1vVuoz1PfN--23" value="&lt;div&gt;MAIN &lt;br&gt;&lt;/div&gt;&lt;div&gt;RELAY: &lt;br&gt;&lt;/div&gt;&lt;div&gt;2A&lt;br&gt;&lt;/div&gt;" style="rounded=0;whiteSpace=wrap;html=1;fillColor=#e1d5e7;strokeColor=#9673a6;" parent="1" vertex="1">
          <mxGeometry x="870" y="485" width="120" height="70" as="geometry" />
        </mxCell>
        <mxCell id="QmszCuCcI1vVuoz1PfN--35" value="" style="edgeStyle=orthogonalEdgeStyle;rounded=0;orthogonalLoop=1;jettySize=auto;html=1;" parent="1" source="QmszCuCcI1vVuoz1PfN--25" target="QmszCuCcI1vVuoz1PfN--31" edge="1">
          <mxGeometry relative="1" as="geometry" />
        </mxCell>
        <mxCell id="QmszCuCcI1vVuoz1PfN--50" style="edgeStyle=orthogonalEdgeStyle;rounded=0;orthogonalLoop=1;jettySize=auto;html=1;entryX=-0.021;entryY=0.407;entryDx=0;entryDy=0;entryPerimeter=0;" parent="1" source="QmszCuCcI1vVuoz1PfN--25" target="QmszCuCcI1vVuoz1PfN--42" edge="1">
          <mxGeometry relative="1" as="geometry" />
        </mxCell>
        <mxCell id="QmszCuCcI1vVuoz1PfN--62" style="edgeStyle=orthogonalEdgeStyle;rounded=0;orthogonalLoop=1;jettySize=auto;html=1;entryX=0.053;entryY=0.99;entryDx=0;entryDy=0;entryPerimeter=0;" parent="1" source="QmszCuCcI1vVuoz1PfN--25" target="QmszCuCcI1vVuoz1PfN--3" edge="1">
          <mxGeometry relative="1" as="geometry" />
        </mxCell>
        <mxCell id="QmszCuCcI1vVuoz1PfN--25" value="&lt;div&gt;MAIN &lt;br&gt;&lt;/div&gt;&lt;div&gt;RELAY: &lt;br&gt;&lt;/div&gt;&lt;div&gt;2B&lt;br&gt;&lt;/div&gt;" style="rounded=0;whiteSpace=wrap;html=1;fillColor=#e1d5e7;strokeColor=#9673a6;" parent="1" vertex="1">
          <mxGeometry x="870" y="675" width="120" height="70" as="geometry" />
        </mxCell>
        <mxCell id="QmszCuCcI1vVuoz1PfN--30" value="" style="edgeStyle=orthogonalEdgeStyle;rounded=0;orthogonalLoop=1;jettySize=auto;html=1;" parent="1" source="QmszCuCcI1vVuoz1PfN--26" target="QmszCuCcI1vVuoz1PfN--25" edge="1">
          <mxGeometry relative="1" as="geometry" />
        </mxCell>
        <mxCell id="QmszCuCcI1vVuoz1PfN--49" style="edgeStyle=orthogonalEdgeStyle;rounded=0;orthogonalLoop=1;jettySize=auto;html=1;" parent="1" source="QmszCuCcI1vVuoz1PfN--26" target="QmszCuCcI1vVuoz1PfN--44" edge="1">
          <mxGeometry relative="1" as="geometry" />
        </mxCell>
        <mxCell id="lCQCsZ8ukJ3mlJXEvnOO-11" style="edgeStyle=orthogonalEdgeStyle;rounded=0;orthogonalLoop=1;jettySize=auto;html=1;exitX=0;exitY=0.5;exitDx=0;exitDy=0;entryX=0.165;entryY=1.009;entryDx=0;entryDy=0;entryPerimeter=0;" parent="1" source="QmszCuCcI1vVuoz1PfN--26" target="QmszCuCcI1vVuoz1PfN--3" edge="1">
          <mxGeometry relative="1" as="geometry" />
        </mxCell>
        <mxCell id="QmszCuCcI1vVuoz1PfN--26" value="&lt;div&gt;MAIN &lt;br&gt;&lt;/div&gt;&lt;div&gt;RELAY: &lt;br&gt;&lt;/div&gt;&lt;div&gt;1C&lt;br&gt;&lt;/div&gt;" style="rounded=0;whiteSpace=wrap;html=1;fillColor=#e1d5e7;strokeColor=#9673a6;" parent="1" vertex="1">
          <mxGeometry x="870" y="585" width="120" height="70" as="geometry" />
        </mxCell>
        <mxCell id="QmszCuCcI1vVuoz1PfN--36" value="" style="edgeStyle=orthogonalEdgeStyle;rounded=0;orthogonalLoop=1;jettySize=auto;html=1;" parent="1" source="QmszCuCcI1vVuoz1PfN--31" target="QmszCuCcI1vVuoz1PfN--33" edge="1">
          <mxGeometry relative="1" as="geometry" />
        </mxCell>
        <mxCell id="QmszCuCcI1vVuoz1PfN--51" style="edgeStyle=orthogonalEdgeStyle;rounded=0;orthogonalLoop=1;jettySize=auto;html=1;entryX=0;entryY=0.5;entryDx=0;entryDy=0;" parent="1" source="QmszCuCcI1vVuoz1PfN--31" target="QmszCuCcI1vVuoz1PfN--41" edge="1">
          <mxGeometry relative="1" as="geometry">
            <Array as="points">
              <mxPoint x="1030" y="805" />
              <mxPoint x="1030" y="805" />
            </Array>
          </mxGeometry>
        </mxCell>
        <mxCell id="QmszCuCcI1vVuoz1PfN--31" value="&lt;div&gt;MAIN &lt;br&gt;&lt;/div&gt;&lt;div&gt;RELAY: &lt;br&gt;&lt;/div&gt;&lt;div&gt;1B&lt;br&gt;&lt;/div&gt;" style="rounded=0;whiteSpace=wrap;html=1;fillColor=#e1d5e7;strokeColor=#9673a6;" parent="1" vertex="1">
          <mxGeometry x="870" y="765" width="120" height="70" as="geometry" />
        </mxCell>
        <mxCell id="QmszCuCcI1vVuoz1PfN--55" value="" style="edgeStyle=orthogonalEdgeStyle;rounded=0;orthogonalLoop=1;jettySize=auto;html=1;" parent="1" source="QmszCuCcI1vVuoz1PfN--32" target="QmszCuCcI1vVuoz1PfN--45" edge="1">
          <mxGeometry relative="1" as="geometry" />
        </mxCell>
        <mxCell id="QmszCuCcI1vVuoz1PfN--65" style="edgeStyle=orthogonalEdgeStyle;rounded=0;orthogonalLoop=1;jettySize=auto;html=1;entryX=0.25;entryY=0;entryDx=0;entryDy=0;" parent="1" source="QmszCuCcI1vVuoz1PfN--32" target="QmszCuCcI1vVuoz1PfN--3" edge="1">
          <mxGeometry relative="1" as="geometry">
            <Array as="points">
              <mxPoint x="470" y="584" />
            </Array>
          </mxGeometry>
        </mxCell>
        <mxCell id="QmszCuCcI1vVuoz1PfN--32" value="&lt;div&gt;MAIN &lt;br&gt;&lt;/div&gt;&lt;div&gt;RELAY: &lt;br&gt;&lt;/div&gt;&lt;div&gt;2D&lt;br&gt;&lt;/div&gt;" style="rounded=0;whiteSpace=wrap;html=1;fillColor=#e1d5e7;strokeColor=#9673a6;" parent="1" vertex="1">
          <mxGeometry x="400" y="765" width="120" height="70" as="geometry" />
        </mxCell>
        <mxCell id="QmszCuCcI1vVuoz1PfN--37" value="" style="edgeStyle=orthogonalEdgeStyle;rounded=0;orthogonalLoop=1;jettySize=auto;html=1;" parent="1" source="QmszCuCcI1vVuoz1PfN--33" target="QmszCuCcI1vVuoz1PfN--34" edge="1">
          <mxGeometry relative="1" as="geometry" />
        </mxCell>
        <mxCell id="QmszCuCcI1vVuoz1PfN--53" value="" style="edgeStyle=orthogonalEdgeStyle;rounded=0;orthogonalLoop=1;jettySize=auto;html=1;" parent="1" source="QmszCuCcI1vVuoz1PfN--33" target="QmszCuCcI1vVuoz1PfN--47" edge="1">
          <mxGeometry relative="1" as="geometry" />
        </mxCell>
        <mxCell id="QmszCuCcI1vVuoz1PfN--63" style="edgeStyle=orthogonalEdgeStyle;rounded=0;orthogonalLoop=1;jettySize=auto;html=1;entryX=0;entryY=0.75;entryDx=0;entryDy=0;" parent="1" source="QmszCuCcI1vVuoz1PfN--33" target="QmszCuCcI1vVuoz1PfN--3" edge="1">
          <mxGeometry relative="1" as="geometry" />
        </mxCell>
        <mxCell id="QmszCuCcI1vVuoz1PfN--33" value="&lt;div&gt;MAIN &lt;br&gt;&lt;/div&gt;&lt;div&gt;RELAY: &lt;br&gt;&lt;/div&gt;&lt;div&gt;2C&lt;br&gt;&lt;/div&gt;" style="rounded=0;whiteSpace=wrap;html=1;fillColor=#e1d5e7;strokeColor=#9673a6;" parent="1" vertex="1">
          <mxGeometry x="710" y="765" width="120" height="70" as="geometry" />
        </mxCell>
        <mxCell id="QmszCuCcI1vVuoz1PfN--38" value="" style="edgeStyle=orthogonalEdgeStyle;rounded=0;orthogonalLoop=1;jettySize=auto;html=1;" parent="1" source="QmszCuCcI1vVuoz1PfN--34" target="QmszCuCcI1vVuoz1PfN--32" edge="1">
          <mxGeometry relative="1" as="geometry" />
        </mxCell>
        <mxCell id="QmszCuCcI1vVuoz1PfN--54" value="" style="edgeStyle=orthogonalEdgeStyle;rounded=0;orthogonalLoop=1;jettySize=auto;html=1;" parent="1" source="QmszCuCcI1vVuoz1PfN--34" target="QmszCuCcI1vVuoz1PfN--46" edge="1">
          <mxGeometry relative="1" as="geometry" />
        </mxCell>
        <mxCell id="QmszCuCcI1vVuoz1PfN--64" style="edgeStyle=orthogonalEdgeStyle;rounded=0;orthogonalLoop=1;jettySize=auto;html=1;entryX=0.1;entryY=-0.01;entryDx=0;entryDy=0;entryPerimeter=0;" parent="1" source="QmszCuCcI1vVuoz1PfN--34" target="QmszCuCcI1vVuoz1PfN--3" edge="1">
          <mxGeometry relative="1" as="geometry">
            <Array as="points">
              <mxPoint x="610" y="648" />
            </Array>
          </mxGeometry>
        </mxCell>
        <mxCell id="QmszCuCcI1vVuoz1PfN--34" value="&lt;div&gt;MAIN &lt;br&gt;&lt;/div&gt;&lt;div&gt;RELAY: &lt;br&gt;&lt;/div&gt;&lt;div&gt;1A&lt;br&gt;&lt;/div&gt;" style="rounded=0;whiteSpace=wrap;html=1;fillColor=#e1d5e7;strokeColor=#9673a6;" parent="1" vertex="1">
          <mxGeometry x="550" y="765" width="120" height="70" as="geometry" />
        </mxCell>
        <mxCell id="lCQCsZ8ukJ3mlJXEvnOO-15" style="edgeStyle=orthogonalEdgeStyle;rounded=0;orthogonalLoop=1;jettySize=auto;html=1;exitX=0;exitY=0.75;exitDx=0;exitDy=0;entryX=0.996;entryY=0.791;entryDx=0;entryDy=0;entryPerimeter=0;" parent="1" source="QmszCuCcI1vVuoz1PfN--41" target="QmszCuCcI1vVuoz1PfN--31" edge="1">
          <mxGeometry relative="1" as="geometry" />
        </mxCell>
        <mxCell id="QmszCuCcI1vVuoz1PfN--41" value="&lt;div&gt;MECH&lt;/div&gt;&lt;div&gt;SWITCH:&lt;/div&gt;&lt;div&gt;&amp;nbsp;1B&lt;br&gt;&lt;/div&gt;" style="rounded=0;whiteSpace=wrap;html=1;fillColor=#fff2cc;strokeColor=#d6b656;" parent="1" vertex="1">
          <mxGeometry x="1110" y="775" width="80" height="60" as="geometry" />
        </mxCell>
        <mxCell id="lCQCsZ8ukJ3mlJXEvnOO-14" style="edgeStyle=orthogonalEdgeStyle;rounded=0;orthogonalLoop=1;jettySize=auto;html=1;exitX=0;exitY=0.75;exitDx=0;exitDy=0;entryX=0.999;entryY=0.79;entryDx=0;entryDy=0;entryPerimeter=0;" parent="1" source="QmszCuCcI1vVuoz1PfN--42" target="QmszCuCcI1vVuoz1PfN--25" edge="1">
          <mxGeometry relative="1" as="geometry" />
        </mxCell>
        <mxCell id="QmszCuCcI1vVuoz1PfN--42" value="&lt;div&gt;MECH&lt;/div&gt;&lt;div&gt;SWITCH:&lt;/div&gt;&lt;div&gt;&amp;nbsp;2B&lt;br&gt;&lt;/div&gt;" style="rounded=0;whiteSpace=wrap;html=1;fillColor=#fff2cc;strokeColor=#d6b656;" parent="1" vertex="1">
          <mxGeometry x="1110" y="685" width="80" height="60" as="geometry" />
        </mxCell>
        <mxCell id="lCQCsZ8ukJ3mlJXEvnOO-7" style="edgeStyle=orthogonalEdgeStyle;rounded=0;orthogonalLoop=1;jettySize=auto;html=1;exitX=0;exitY=0.75;exitDx=0;exitDy=0;entryX=1.001;entryY=0.798;entryDx=0;entryDy=0;entryPerimeter=0;" parent="1" source="QmszCuCcI1vVuoz1PfN--43" target="QmszCuCcI1vVuoz1PfN--23" edge="1">
          <mxGeometry relative="1" as="geometry">
            <Array as="points">
              <mxPoint x="1050" y="540" />
            </Array>
          </mxGeometry>
        </mxCell>
        <mxCell id="QmszCuCcI1vVuoz1PfN--43" value="&lt;div&gt;MECH&lt;/div&gt;&lt;div&gt;SWITCH:&lt;/div&gt;&lt;div&gt;&amp;nbsp;2A&lt;br&gt;&lt;/div&gt;" style="rounded=0;whiteSpace=wrap;html=1;fillColor=#fff2cc;strokeColor=#d6b656;" parent="1" vertex="1">
          <mxGeometry x="1110" y="495" width="80" height="60" as="geometry" />
        </mxCell>
        <mxCell id="lCQCsZ8ukJ3mlJXEvnOO-13" style="edgeStyle=orthogonalEdgeStyle;rounded=0;orthogonalLoop=1;jettySize=auto;html=1;exitX=0;exitY=0.75;exitDx=0;exitDy=0;entryX=1.002;entryY=0.711;entryDx=0;entryDy=0;entryPerimeter=0;" parent="1" source="QmszCuCcI1vVuoz1PfN--44" target="QmszCuCcI1vVuoz1PfN--26" edge="1">
          <mxGeometry relative="1" as="geometry">
            <Array as="points">
              <mxPoint x="1050" y="635" />
            </Array>
          </mxGeometry>
        </mxCell>
        <mxCell id="QmszCuCcI1vVuoz1PfN--44" value="&lt;div&gt;MECH&lt;/div&gt;&lt;div&gt;SWITCH:&lt;/div&gt;&lt;div&gt;&amp;nbsp;1C&lt;br&gt;&lt;/div&gt;" style="rounded=0;whiteSpace=wrap;html=1;fillColor=#fff2cc;strokeColor=#d6b656;" parent="1" vertex="1">
          <mxGeometry x="1110" y="590" width="80" height="60" as="geometry" />
        </mxCell>
        <mxCell id="lCQCsZ8ukJ3mlJXEvnOO-18" style="edgeStyle=orthogonalEdgeStyle;rounded=0;orthogonalLoop=1;jettySize=auto;html=1;exitX=0.75;exitY=0;exitDx=0;exitDy=0;entryX=0.667;entryY=1;entryDx=0;entryDy=0;entryPerimeter=0;" parent="1" source="QmszCuCcI1vVuoz1PfN--45" target="QmszCuCcI1vVuoz1PfN--32" edge="1">
          <mxGeometry relative="1" as="geometry" />
        </mxCell>
        <mxCell id="QmszCuCcI1vVuoz1PfN--45" value="&lt;div&gt;MECH&lt;/div&gt;&lt;div&gt;SWITCH:&lt;/div&gt;&lt;div&gt;&amp;nbsp;2D&lt;br&gt;&lt;/div&gt;" style="rounded=0;whiteSpace=wrap;html=1;fillColor=#fff2cc;strokeColor=#d6b656;" parent="1" vertex="1">
          <mxGeometry x="420" y="915" width="80" height="60" as="geometry" />
        </mxCell>
        <mxCell id="lCQCsZ8ukJ3mlJXEvnOO-17" style="edgeStyle=orthogonalEdgeStyle;rounded=0;orthogonalLoop=1;jettySize=auto;html=1;exitX=0.75;exitY=0;exitDx=0;exitDy=0;entryX=0.667;entryY=1;entryDx=0;entryDy=0;entryPerimeter=0;" parent="1" source="QmszCuCcI1vVuoz1PfN--46" target="QmszCuCcI1vVuoz1PfN--34" edge="1">
          <mxGeometry relative="1" as="geometry" />
        </mxCell>
        <mxCell id="QmszCuCcI1vVuoz1PfN--46" value="&lt;div&gt;MECH&lt;/div&gt;&lt;div&gt;SWITCH:&lt;/div&gt;&lt;div&gt;&amp;nbsp;1A&lt;/div&gt;" style="rounded=0;whiteSpace=wrap;html=1;fillColor=#fff2cc;strokeColor=#d6b656;" parent="1" vertex="1">
          <mxGeometry x="570" y="915" width="80" height="60" as="geometry" />
        </mxCell>
        <mxCell id="lCQCsZ8ukJ3mlJXEvnOO-16" style="edgeStyle=orthogonalEdgeStyle;rounded=0;orthogonalLoop=1;jettySize=auto;html=1;exitX=0.75;exitY=0;exitDx=0;exitDy=0;" parent="1" source="QmszCuCcI1vVuoz1PfN--47" edge="1">
          <mxGeometry relative="1" as="geometry">
            <mxPoint x="790" y="835" as="targetPoint" />
          </mxGeometry>
        </mxCell>
        <mxCell id="QmszCuCcI1vVuoz1PfN--47" value="&lt;div&gt;MECH&lt;/div&gt;&lt;div&gt;SWITCH:&lt;/div&gt;&lt;div&gt;&amp;nbsp;2C&lt;/div&gt;" style="rounded=0;whiteSpace=wrap;html=1;fillColor=#fff2cc;strokeColor=#d6b656;" parent="1" vertex="1">
          <mxGeometry x="730" y="915" width="80" height="60" as="geometry" />
        </mxCell>
        <mxCell id="QmszCuCcI1vVuoz1PfN--71" value="&#xa;&lt;div&gt;GPIO&lt;/div&gt;&lt;div&gt;&lt;br&gt;&lt;/div&gt;&#xa;&#xa;" style="text;whiteSpace=wrap;html=1;rotation=90;" parent="1" vertex="1">
          <mxGeometry x="750" y="725" width="60" height="50" as="geometry" />
        </mxCell>
        <mxCell id="QmszCuCcI1vVuoz1PfN--72" value="&lt;div&gt;GPIO&lt;/div&gt;&lt;div&gt;&lt;br&gt;&lt;/div&gt;" style="text;whiteSpace=wrap;html=1;rotation=90;" parent="1" vertex="1">
          <mxGeometry x="580" y="695" width="60" height="50" as="geometry" />
        </mxCell>
        <mxCell id="QmszCuCcI1vVuoz1PfN--73" value="&#xa;&lt;div&gt;GPIO&lt;/div&gt;&lt;div&gt;&lt;br&gt;&lt;/div&gt;&#xa;&#xa;" style="text;whiteSpace=wrap;html=1;rotation=90;" parent="1" vertex="1">
          <mxGeometry x="480" y="645" width="60" as="geometry" />
        </mxCell>
        <mxCell id="QmszCuCcI1vVuoz1PfN--75" value="&lt;div&gt;GPIO&lt;/div&gt;&lt;div&gt;&lt;br&gt;&lt;/div&gt;" style="text;whiteSpace=wrap;html=1;rotation=90;" parent="1" vertex="1">
          <mxGeometry x="780" y="675" width="60" height="50" as="geometry" />
        </mxCell>
        <mxCell id="QmszCuCcI1vVuoz1PfN--76" value="&lt;div&gt;GPIO&lt;/div&gt;&lt;div&gt;&lt;br&gt;&lt;/div&gt;" style="text;whiteSpace=wrap;html=1;" parent="1" vertex="1">
          <mxGeometry x="790" y="395" width="60" height="20" as="geometry" />
        </mxCell>
        <mxCell id="QmszCuCcI1vVuoz1PfN--77" value="&lt;div&gt;GPIO&lt;/div&gt;&lt;div&gt;&lt;br&gt;&lt;/div&gt;" style="text;whiteSpace=wrap;html=1;" parent="1" vertex="1">
          <mxGeometry x="790" y="600" width="60" height="25.5" as="geometry" />
        </mxCell>
        <mxCell id="QmszCuCcI1vVuoz1PfN--79" value="&lt;div&gt;GPIO&lt;/div&gt;&lt;div&gt;&lt;br&gt;&lt;/div&gt;" style="text;whiteSpace=wrap;html=1;" parent="1" vertex="1">
          <mxGeometry x="790" y="495" width="60" height="20" as="geometry" />
        </mxCell>
        <mxCell id="QmszCuCcI1vVuoz1PfN--80" value="+" style="text;html=1;strokeColor=none;fillColor=none;align=center;verticalAlign=middle;whiteSpace=wrap;rounded=0;rotation=0;" parent="1" vertex="1">
          <mxGeometry x="580" y="865" width="40" height="20" as="geometry" />
        </mxCell>
        <mxCell id="QmszCuCcI1vVuoz1PfN--81" value="&lt;div&gt;+&lt;/div&gt;" style="text;html=1;strokeColor=none;fillColor=none;align=center;verticalAlign=middle;whiteSpace=wrap;rounded=0;rotation=0;" parent="1" vertex="1">
          <mxGeometry x="740" y="865" width="40" height="20" as="geometry" />
        </mxCell>
        <mxCell id="QmszCuCcI1vVuoz1PfN--82" value="+" style="text;html=1;strokeColor=none;fillColor=none;align=center;verticalAlign=middle;whiteSpace=wrap;rounded=0;rotation=0;" parent="1" vertex="1">
          <mxGeometry x="1030" y="785" width="40" height="20" as="geometry" />
        </mxCell>
        <mxCell id="QmszCuCcI1vVuoz1PfN--83" value="&lt;div style=&quot;font-size: 14px;&quot;&gt;+&lt;/div&gt;" style="text;html=1;strokeColor=none;fillColor=none;align=center;verticalAlign=middle;whiteSpace=wrap;rounded=0;rotation=0;" parent="1" vertex="1">
          <mxGeometry x="1030" y="690" width="40" height="20" as="geometry" />
        </mxCell>
        <mxCell id="QmszCuCcI1vVuoz1PfN--84" value="+" style="text;html=1;strokeColor=none;fillColor=none;align=center;verticalAlign=middle;whiteSpace=wrap;rounded=0;rotation=0;" parent="1" vertex="1">
          <mxGeometry x="1030" y="599.5" width="40" height="20" as="geometry" />
        </mxCell>
        <mxCell id="QmszCuCcI1vVuoz1PfN--85" value="-" style="text;html=1;strokeColor=none;fillColor=none;align=center;verticalAlign=middle;whiteSpace=wrap;rounded=0;rotation=0;" parent="1" vertex="1">
          <mxGeometry x="1030" y="535" width="40" height="20" as="geometry" />
        </mxCell>
        <mxCell id="QmszCuCcI1vVuoz1PfN--86" value="+" style="text;html=1;strokeColor=none;fillColor=none;align=center;verticalAlign=middle;whiteSpace=wrap;rounded=0;rotation=0;" parent="1" vertex="1">
          <mxGeometry x="1030" y="395" width="40" height="20" as="geometry" />
        </mxCell>
        <mxCell id="lCQCsZ8ukJ3mlJXEvnOO-2" value="+" style="text;html=1;strokeColor=none;fillColor=none;align=center;verticalAlign=middle;whiteSpace=wrap;rounded=0;rotation=0;" parent="1" vertex="1">
          <mxGeometry x="430" y="865" width="40" height="20" as="geometry" />
        </mxCell>
        <mxCell id="lCQCsZ8ukJ3mlJXEvnOO-4" value="+" style="text;html=1;strokeColor=none;fillColor=none;align=center;verticalAlign=middle;whiteSpace=wrap;rounded=0;rotation=0;" parent="1" vertex="1">
          <mxGeometry x="1030" y="500" width="40" height="20" as="geometry" />
        </mxCell>
        <mxCell id="lCQCsZ8ukJ3mlJXEvnOO-8" value="-" style="text;html=1;strokeColor=none;fillColor=none;align=center;verticalAlign=middle;whiteSpace=wrap;rounded=0;rotation=0;" parent="1" vertex="1">
          <mxGeometry x="1030" y="437.82" width="40" height="20" as="geometry" />
        </mxCell>
        <mxCell id="lCQCsZ8ukJ3mlJXEvnOO-19" value="-" style="text;html=1;strokeColor=none;fillColor=none;align=center;verticalAlign=middle;whiteSpace=wrap;rounded=0;rotation=0;" parent="1" vertex="1">
          <mxGeometry x="1030" y="630" width="40" height="20" as="geometry" />
        </mxCell>
        <mxCell id="lCQCsZ8ukJ3mlJXEvnOO-20" value="-" style="text;html=1;strokeColor=none;fillColor=none;align=center;verticalAlign=middle;whiteSpace=wrap;rounded=0;rotation=0;" parent="1" vertex="1">
          <mxGeometry x="1030" y="725" width="40" height="20" as="geometry" />
        </mxCell>
        <mxCell id="lCQCsZ8ukJ3mlJXEvnOO-21" value="-" style="text;html=1;strokeColor=none;fillColor=none;align=center;verticalAlign=middle;whiteSpace=wrap;rounded=0;rotation=0;" parent="1" vertex="1">
          <mxGeometry x="1030" y="815" width="40" height="20" as="geometry" />
        </mxCell>
        <mxCell id="lCQCsZ8ukJ3mlJXEvnOO-22" value="-" style="text;html=1;strokeColor=none;fillColor=none;align=center;verticalAlign=middle;whiteSpace=wrap;rounded=0;rotation=0;" parent="1" vertex="1">
          <mxGeometry x="780" y="865" width="40" height="20" as="geometry" />
        </mxCell>
        <mxCell id="lCQCsZ8ukJ3mlJXEvnOO-23" value="-" style="text;html=1;strokeColor=none;fillColor=none;align=center;verticalAlign=middle;whiteSpace=wrap;rounded=0;rotation=0;" parent="1" vertex="1">
          <mxGeometry x="620" y="865" width="40" height="20" as="geometry" />
        </mxCell>
        <mxCell id="lCQCsZ8ukJ3mlJXEvnOO-24" value="-" style="text;html=1;strokeColor=none;fillColor=none;align=center;verticalAlign=middle;whiteSpace=wrap;rounded=0;rotation=0;" parent="1" vertex="1">
          <mxGeometry x="480" y="865" width="30" height="20" as="geometry" />
        </mxCell>
        <mxCell id="rch-fzdMA8eyYcIIr424-6" style="edgeStyle=orthogonalEdgeStyle;rounded=0;orthogonalLoop=1;jettySize=auto;html=1;exitX=0.25;exitY=0;exitDx=0;exitDy=0;entryX=0;entryY=0;entryDx=0;entryDy=0;" edge="1" parent="1" source="rch-fzdMA8eyYcIIr424-2" target="QmszCuCcI1vVuoz1PfN--32">
          <mxGeometry relative="1" as="geometry" />
        </mxCell>
        <mxCell id="rch-fzdMA8eyYcIIr424-2" value="ARM-&lt;br&gt;CONTROL&lt;br&gt;UNIT" style="rounded=0;whiteSpace=wrap;html=1;fillColor=#e1d5e7;strokeColor=#9673a6;direction=north;" vertex="1" parent="1">
          <mxGeometry x="440" y="395" width="60" height="120" as="geometry" />
        </mxCell>
      </root>
    </mxGraphModel>
  </diagram>
</mxfile>
